# xmcd
#
# Track frame offsets: 
#        150
#        13647
#        26837
#        37945
#        50670
#        59800
#        71140
#        85385
#        96372
#        112350
#        123490
#        134310
#        146405
#        159477
#        173520
#        183862
#
# Disc length: 2632 seconds
#
# Revision: 0
# Processed by: cddbd v1.4PL0 Copyright (c) Steve Scherf et al.
# Submitted via: ExactAudioCopy v0.95a4
#
DISCID=e80a4610
DTITLE=Diana Ross - Diana Ross and the Supremes Vol 2
DYEAR=1992
DGENRE=Soul
TTITLE0=Love Child
TTITLE1=Love Is Like An Itching In My Heart
TTITLE2=Standing At The Crossroads Of Love
TTITLE3=He's All I Got
TTITLE4=He Means The World To Me
TTITLE5=Yesterday
TTITLE6=I'm Gonna Make You Love Me (With The Temptations)
TTITLE7=A Breath Taking Guy
TTITLE8=Someday We'll Be Together
TTITLE9=Long Gone Lover
TTITLE10=I'll Try Something New
TTITLE11=I'm Giving You Your Freedom
TTITLE12=Wonderful, Wonderful
TTITLE13=Stranger In Paradise
TTITLE14=Run Run Run
TTITLE15=Without A Song
EXTD=
EXTT0=
EXTT1=
EXTT2=
EXTT3=
EXTT4=
EXTT5=
EXTT6=
EXTT7=
EXTT8=
EXTT9=
EXTT10=
EXTT11=
EXTT12=
EXTT13=
EXTT14=
EXTT15=
PLAYORDER=
